<svg id="Layer_1" data-name="Layer 1" xmlns="http://www.w3.org/2000/svg" viewBox="0 0 70.86 27.15"><title>Artboard 2</title><path d="M41.27,23.81c-3.78,0-6.62-2.17-6.62-6V4.13h3.78v13.7a2.84,2.84,0,0,0,5.68,0V4.13H47.9V17.81C47.9,21.64,45.05,23.81,41.27,23.81Z"/><path d="M59.62,23.54h-5l1.23-4a7.61,7.61,0,0,0,3.57.59c1.8,0,2.95-.62,2.95-2S61.14,16,59.72,15.39c-2.17-1-4.88-2.44-4.88-5.85s2.41-5.74,6.3-5.74a9.26,9.26,0,0,1,4.53,1L64.5,7.91a6.94,6.94,0,0,0-3.19-.86c-1.64,0-2.68.91-2.68,2.28s1.31,2.06,2.73,2.76c2.12,1,4.88,2.39,4.88,5.82S63.8,23.54,59.62,23.54Z"/><polygon points="29.47 13.41 35.98 4.13 31.72 4.13 25.14 13.42 25.14 13.42 31.82 23.54 36.12 23.54 29.47 13.41"/><path d="M54.93,17.38a5.54,5.54,0,0,0-2.25-2.84v-.05a4.78,4.78,0,0,0,3.78-4.83C56.46,6,54,3.81,49.14,3.81c-.68,0-4.36.25-5,.32l3,2.85a7.11,7.11,0,0,1,2.1-.3c2.44,0,3.54,1.18,3.54,3.19S51.44,13,49.06,13H47.12v2.68h1.35a2.7,2.7,0,0,1,2.63,1.93l2.44,6h4Z"/><polygon points="14.84 13.41 21.35 4.13 17.09 4.13 10.52 13.42 10.52 13.42 17.2 23.54 21.49 23.54 14.84 13.41"/><rect x="6.16" y="4.13" width="3.78" height="9.55"/><rect x="20.41" y="4.13" width="3.78" height="9.55"/></svg>