<?xml version="1.0" encoding="utf-8"?>
<!-- Generator: Adobe Illustrator 21.0.2, SVG Export Plug-In . SVG Version: 6.00 Build 0)  -->
<svg version="1.1" id="Layer_1" xmlns="http://www.w3.org/2000/svg" xmlns:xlink="http://www.w3.org/1999/xlink" x="0px" y="0px"
	 viewBox="0 0 109.2 34.7" style="enable-background:new 0 0 109.2 34.7;" xml:space="preserve">
<style type="text/css">
	.st0{fill:#1C4196;}
	.st1{fill:#F69915;}
	.st2{fill-rule:evenodd;clip-rule:evenodd;fill:#FFAB14;}
	.st3{fill-rule:evenodd;clip-rule:evenodd;fill:#FE000C;}
	.st4{fill-rule:evenodd;clip-rule:evenodd;fill:#FFFFFF;}
	.st5{fill:none;stroke:#FFFFFF;stroke-width:0.216;stroke-miterlimit:2.6131;}
</style>
<g>
	<g>
		<polygon class="st0" points="27.5,24.7 23.4,24.7 26,9 30,9 		"/>
		<path class="st0" d="M20,9l-3.9,10.7l-0.5-2.3l0,0l-1.4-7c0,0-0.2-1.4-1.9-1.4H5.9L5.8,9.3c0,0,2,0.4,4.3,1.8l3.6,13.6h4.2L24.4,9
			C24.4,9,20,9,20,9z"/>
		<path class="st0" d="M52,24.7h3.7L52.5,9h-3.3c-1.5,0-1.9,1.2-1.9,1.2l-6.1,14.5h4.2l0.8-2.3h5.2L52,24.7z M47.5,19.1l2.1-5.9
			l1.2,5.9H47.5z"/>
		<path class="st0" d="M41.6,12.8l0.6-3.3c0,0-1.8-0.7-3.7-0.7c-2,0-6.8,0.9-6.8,5.2c0,4.1,5.6,4.1,5.6,6.2s-5.1,1.8-6.7,0.4
			L30,24.1c0,0,1.8,0.9,4.6,0.9c2.8,0,7-1.4,7-5.4c0-4.1-5.7-4.4-5.7-6.2C35.9,11.6,39.8,11.8,41.6,12.8z"/>
	</g>
	<path class="st1" d="M15.6,17.5l-1.4-7c0,0-0.2-1.4-1.9-1.4H5.9L5.8,9.3c0,0,3.1,0.6,6,3.1C14.7,14.6,15.6,17.5,15.6,17.5z"/>
</g>
<polygon class="st2" points="90.3,28 90.8,27.9 91.3,27.9 91.9,27.8 92.4,27.7 92.9,27.6 93.4,27.5 93.9,27.3 94.4,27.1 94.8,26.9 
	95.3,26.7 95.7,26.4 96.2,26.2 96.6,25.9 97,25.5 97.4,25.2 97.7,24.9 98.1,24.5 98.4,24.1 98.7,23.7 99,23.3 99.3,22.9 99.6,22.4 
	99.8,22 100,21.5 100.2,21 100.4,20.5 100.5,20 100.6,19.5 100.7,19 100.8,18.5 100.8,17.9 100.8,17.4 100.8,16.9 100.8,16.3 
	100.7,15.8 100.6,15.3 100.5,14.8 100.4,14.3 100.2,13.8 100,13.3 99.8,12.8 99.6,12.4 99.3,12 99,11.5 98.7,11.1 98.4,10.7 
	98.1,10.3 97.7,10 97.4,9.6 97,9.3 96.6,9 96.2,8.7 95.7,8.4 95.3,8.2 94.8,7.9 94.4,7.7 93.9,7.5 93.4,7.4 92.9,7.2 92.4,7.1 
	91.9,7 91.3,6.9 90.8,6.9 90.3,6.9 89.7,6.9 89.2,6.9 88.7,7 88.1,7.1 87.6,7.2 87.1,7.4 86.7,7.5 86.2,7.7 85.7,7.9 85.3,8.2 
	84.8,8.4 84.4,8.7 84,9 83.6,9.3 83.2,9.6 82.8,10 82.5,10.3 82.1,10.7 81.8,11.1 81.5,11.5 81.3,12 81,12.4 80.8,12.8 80.6,13.3 
	80.4,13.8 80.2,14.3 80.1,14.8 80,15.3 79.9,15.8 79.8,16.3 79.8,16.9 79.8,17.4 79.8,17.9 79.8,18.5 79.9,19 80,19.5 80.1,20 
	80.2,20.5 80.4,21 80.6,21.5 80.8,22 81,22.4 81.3,22.9 81.5,23.3 81.8,23.7 82.1,24.1 82.5,24.5 82.8,24.9 83.2,25.2 83.6,25.5 
	84,25.9 84.4,26.2 84.8,26.4 85.3,26.7 85.7,26.9 86.2,27.1 86.7,27.3 87.1,27.5 87.6,27.6 88.1,27.7 88.7,27.8 89.2,27.9 
	89.7,27.9 90.3,28 90.3,28 "/>
<polygon class="st3" points="76.2,28 76.7,27.9 77.2,27.9 77.8,27.8 78.3,27.7 78.8,27.6 79.3,27.5 79.8,27.3 80.3,27.1 80.7,26.9 
	81.2,26.7 81.6,26.4 82.1,26.2 82.5,25.9 82.9,25.5 83.2,25.2 83.6,24.9 84,24.5 84.3,24.1 84.6,23.7 84.9,23.3 85.2,22.9 
	85.4,22.4 85.7,22 85.9,21.5 86.1,21 86.2,20.5 86.4,20 86.5,19.5 86.6,19 86.6,18.5 86.7,17.9 86.7,17.4 86.7,16.9 86.6,16.3 
	86.6,15.8 86.5,15.3 86.4,14.8 86.2,14.3 86.1,13.8 85.9,13.3 85.7,12.8 85.4,12.4 85.2,12 84.9,11.5 84.6,11.1 84.3,10.7 84,10.3 
	83.6,10 83.2,9.6 82.9,9.3 82.5,9 82.1,8.7 81.6,8.4 81.2,8.2 80.7,7.9 80.3,7.7 79.8,7.5 79.3,7.4 78.8,7.2 78.3,7.1 77.8,7 
	77.2,6.9 76.7,6.9 76.2,6.9 75.6,6.9 75.1,6.9 74.6,7 74,7.1 73.5,7.2 73,7.4 72.5,7.5 72.1,7.7 71.6,7.9 71.1,8.2 70.7,8.4 
	70.3,8.7 69.9,9 69.5,9.3 69.1,9.6 68.7,10 68.4,10.3 68,10.7 67.7,11.1 67.4,11.5 67.1,12 66.9,12.4 66.7,12.8 66.4,13.3 
	66.3,13.8 66.1,14.3 65.9,14.8 65.8,15.3 65.7,15.8 65.7,16.3 65.6,16.9 65.6,17.4 65.6,17.9 65.7,18.5 65.7,19 65.8,19.5 65.9,20 
	66.1,20.5 66.3,21 66.4,21.5 66.7,22 66.9,22.4 67.1,22.9 67.4,23.3 67.7,23.7 68,24.1 68.4,24.5 68.7,24.9 69.1,25.2 69.5,25.5 
	69.9,25.9 70.3,26.2 70.7,26.4 71.1,26.7 71.6,26.9 72.1,27.1 72.5,27.3 73,27.5 73.5,27.6 74,27.7 74.6,27.8 75.1,27.9 75.6,27.9 
	76.2,28 76.2,28 "/>
<polygon class="st2" points="82,10.9 87.6,10.9 87.6,10.3 82.5,10.3 82,10.9 82,10.9 "/>
<polygon class="st2" points="81.1,12.2 87.6,12.2 87.6,11.6 81.5,11.6 81.1,12.2 81.1,12.2 "/>
<polygon class="st2" points="80.5,13.5 87.6,13.5 87.6,12.9 80.8,12.9 80.5,13.5 80.5,13.5 "/>
<polygon class="st2" points="80.1,14.7 87.6,14.7 87.6,14.2 80.3,14.2 80.1,14.7 80.1,14.7 "/>
<polygon class="st2" points="80.3,20.9 87.6,20.9 87.6,20.3 80.2,20.3 80.3,20.9 80.3,20.9 "/>
<polygon class="st2" points="80.9,22.2 87.6,22.2 87.6,21.6 80.6,21.6 80.9,22.2 80.9,22.2 "/>
<polygon class="st2" points="81.6,23.4 87.6,23.4 87.6,22.9 81.3,22.9 81.6,23.4 81.6,23.4 "/>
<polygon class="st2" points="82.7,24.7 87.6,24.7 87.6,24.1 82.2,24.1 82.7,24.7 82.7,24.7 "/>
<polygon class="st2" points="79.8,16 87.6,16 87.6,15.4 79.9,15.4 79.8,16 79.8,16 "/>
<polygon class="st2" points="84.6,19.6 87.5,19.6 87.5,19 84.7,19 84.6,19.6 84.6,19.6 "/>
<polygon class="st2" points="84.8,18.3 87.5,18.3 87.5,17.8 84.9,17.8 84.8,18.3 84.8,18.3 "/>
<polygon class="st2" points="79.6,17.8 80.4,17.8 80.4,18.3 79.7,18.3 79.6,17.8 79.6,17.8 "/>
<polygon class="st4" points="78.2,17.1 78.2,17.1 78.1,17.1 78.1,17.1 78,17.1 78,17 77.9,17 77.9,17 77.8,17 77.8,17 77.7,17 
	77.7,17 77.6,17 77.5,17 77.4,17 77.3,17 77.2,17 77.2,17 77.1,17 77,17.1 77,17.1 76.9,17.1 76.9,17.1 76.9,17.2 76.8,17.2 
	76.8,17.2 76.8,17.3 76.8,17.3 76.8,17.4 76.8,17.4 76.8,17.5 76.8,17.5 76.9,17.6 76.9,17.6 77,17.7 77.1,17.7 77.2,17.8 
	77.3,17.8 77.5,17.8 77.6,17.9 77.7,17.9 77.8,18 77.9,18.1 78,18.2 78.1,18.3 78.1,18.4 78.2,18.6 78.2,18.7 78.2,19 78.1,19.1 
	78.1,19.3 78,19.4 78,19.5 77.9,19.6 77.8,19.7 77.7,19.8 77.6,19.9 77.5,19.9 77.3,20 77.2,20 77.1,20 77,20.1 76.9,20.1 
	76.7,20.1 76.6,20.1 76.5,20.1 76.3,20.1 76.2,20.1 76.1,20.1 76,20.1 75.9,20.1 75.8,20.1 75.7,20 75.7,20 75.6,20 75.5,20 
	75.5,20 75.4,20 75.3,20 75.3,19.9 75.2,19.9 75.4,19.1 75.4,19.1 75.5,19.2 75.5,19.2 75.6,19.2 75.6,19.2 75.7,19.2 75.8,19.2 
	75.9,19.2 76,19.3 76,19.3 76.1,19.3 76.2,19.3 76.3,19.3 76.4,19.3 76.6,19.3 76.7,19.3 76.8,19.3 76.8,19.2 76.9,19.2 77,19.2 
	77,19.1 77,19 77,19 77,18.9 77.1,18.8 77,18.7 77,18.7 76.9,18.6 76.8,18.6 76.6,18.5 76.5,18.5 76.4,18.4 76.2,18.3 76.1,18.3 
	76,18.2 75.9,18.1 75.8,17.9 75.7,17.8 75.7,17.6 75.7,17.3 75.7,17.2 75.7,17.1 75.7,17 75.8,16.8 75.8,16.7 75.9,16.6 76,16.6 
	76.1,16.5 76.2,16.4 76.3,16.3 76.4,16.3 76.6,16.3 76.7,16.2 76.9,16.2 77.1,16.2 77.3,16.2 77.4,16.2 77.6,16.2 77.7,16.2 
	77.8,16.2 77.8,16.2 77.9,16.2 78,16.2 78.1,16.2 78.1,16.2 78.2,16.2 78.2,16.2 78.3,16.3 78.3,16.3 78.3,16.3 78.4,16.3 
	78.4,16.3 78.2,17.1 78.2,17.1 "/>
<polyline class="st5" points="78.2,17.1 78.2,17.1 78.2,17.1 78.1,17.1 78.1,17.1 78,17.1 78,17 77.9,17 77.9,17 77.8,17 77.8,17 
	77.7,17 77.7,17 77.6,17 77.5,17 77.4,17 77.3,17 77.2,17 77.2,17 77.2,17 77.1,17 77,17.1 77,17.1 76.9,17.1 76.9,17.1 76.9,17.2 
	76.8,17.2 76.8,17.2 76.8,17.3 76.8,17.3 76.8,17.4 76.8,17.4 76.8,17.5 76.8,17.5 76.9,17.6 76.9,17.6 76.9,17.6 77,17.7 
	77.1,17.7 77.2,17.8 77.3,17.8 77.5,17.8 77.6,17.9 77.7,17.9 77.8,18 77.9,18.1 78,18.2 78.1,18.3 78.1,18.4 78.2,18.6 78.2,18.7 
	78.2,19 78.2,19 78.1,19.1 78.1,19.3 78,19.4 78,19.5 77.9,19.6 77.8,19.7 77.7,19.8 77.6,19.9 77.5,19.9 77.3,20 77.2,20 77.1,20 
	77,20.1 76.9,20.1 76.7,20.1 76.6,20.1 76.6,20.1 76.5,20.1 76.3,20.1 76.2,20.1 76.1,20.1 76,20.1 75.9,20.1 75.8,20.1 75.7,20 
	75.7,20 75.6,20 75.5,20 75.5,20 75.4,20 75.3,20 75.3,19.9 75.2,19.9 75.4,19.1 75.4,19.1 75.4,19.1 75.5,19.2 75.5,19.2 
	75.6,19.2 75.6,19.2 75.7,19.2 75.8,19.2 75.9,19.2 76,19.3 76,19.3 76.1,19.3 76.2,19.3 76.3,19.3 76.4,19.3 76.6,19.3 76.7,19.3 
	76.7,19.3 76.8,19.3 76.8,19.2 76.9,19.2 77,19.2 77,19.1 77,19 77,19 77,18.9 77,18.9 77.1,18.8 77,18.7 77,18.7 76.9,18.6 
	76.8,18.6 76.6,18.5 76.5,18.5 76.4,18.4 76.2,18.3 76.1,18.3 76,18.2 75.9,18.1 75.8,17.9 75.7,17.8 75.7,17.6 75.7,17.3 
	75.7,17.3 75.7,17.2 75.7,17.1 75.7,17 75.8,16.8 75.8,16.7 75.9,16.6 76,16.6 76.1,16.5 76.2,16.4 76.3,16.3 76.4,16.3 76.6,16.3 
	76.7,16.2 76.9,16.2 77.1,16.2 77.3,16.2 77.3,16.2 77.4,16.2 77.6,16.2 77.7,16.2 77.8,16.2 77.8,16.2 77.9,16.2 78,16.2 
	78.1,16.2 78.1,16.2 78.2,16.2 78.2,16.2 78.3,16.3 78.3,16.3 78.3,16.3 78.4,16.3 78.4,16.3 78.2,17.1 "/>
<polygon class="st4" points="79.1,15.4 80,15.4 79.9,16.3 80.5,16.3 80.4,17.1 79.7,17 79.4,19 79.4,19.1 79.4,19.2 79.4,19.2 
	79.5,19.2 79.6,19.3 79.6,19.3 79.7,19.3 79.8,19.3 79.9,19.3 79.9,19.3 80,19.3 80.1,19.3 80.1,19.3 80.1,19.3 80.2,19.2 
	80.2,19.2 80,19.9 80,19.9 80,19.9 80,19.9 79.9,20 79.9,20 79.9,20 79.9,20 79.8,20 79.8,20 79.8,20 79.7,20 79.7,20 79.6,20 
	79.6,20.1 79.5,20.1 79.4,20.1 79.2,20.1 79,20.1 78.9,20 78.8,20 78.7,20 78.6,20 78.6,19.9 78.5,19.9 78.4,19.8 78.4,19.8 
	78.4,19.7 78.4,19.7 78.4,19.6 78.4,19.5 78.4,19.4 78.4,19.4 78.4,19.3 79.1,15.4 79.1,15.4 "/>
<polyline class="st5" points="79.1,15.4 80,15.4 79.9,16.3 80.5,16.3 80.4,17.1 79.7,17 79.4,19 79.4,19 79.4,19.1 79.4,19.2 
	79.4,19.2 79.5,19.2 79.6,19.3 79.6,19.3 79.7,19.3 79.8,19.3 79.8,19.3 79.9,19.3 79.9,19.3 80,19.3 80.1,19.3 80.1,19.3 
	80.1,19.3 80.2,19.2 80.2,19.2 80,19.9 80,19.9 80,19.9 80,19.9 80,19.9 79.9,20 79.9,20 79.9,20 79.9,20 79.8,20 79.8,20 79.8,20 
	79.7,20 79.7,20 79.6,20 79.6,20.1 79.5,20.1 79.4,20.1 79.2,20.1 79.2,20.1 79,20.1 78.9,20 78.8,20 78.7,20 78.6,20 78.6,19.9 
	78.5,19.9 78.4,19.8 78.4,19.8 78.4,19.7 78.4,19.7 78.4,19.6 78.4,19.5 78.4,19.4 78.4,19.4 78.4,19.3 79.1,15.4 "/>
<polygon class="st4" points="81.3,18.4 81.3,18.5 81.3,18.5 81.3,18.6 81.3,18.7 81.3,18.7 81.3,18.8 81.4,18.9 81.4,18.9 81.5,19 
	81.5,19 81.6,19.1 81.6,19.1 81.7,19.2 81.8,19.2 81.8,19.2 81.9,19.2 82,19.3 82.1,19.3 82.2,19.3 82.3,19.3 82.4,19.3 82.5,19.3 
	82.6,19.3 82.7,19.3 82.8,19.3 82.9,19.2 82.9,19.2 83,19.2 83.1,19.2 83.2,19.1 83.3,19.1 83.5,19 83.3,19.9 83.3,19.9 83.2,19.9 
	83.1,19.9 83.1,20 83,20 83,20 82.9,20 82.9,20 82.8,20 82.7,20 82.6,20.1 82.6,20.1 82.5,20.1 82.4,20.1 82.3,20.1 82.1,20.1 
	82,20.1 81.8,20 81.6,20 81.4,20 81.3,19.9 81.1,19.9 80.9,19.8 80.8,19.7 80.7,19.5 80.5,19.4 80.4,19.2 80.3,19 80.3,18.8 
	80.2,18.6 80.2,18.3 80.3,18 80.3,17.9 80.3,17.8 80.3,17.7 80.4,17.5 80.4,17.4 80.5,17.2 80.6,17 80.7,16.9 80.8,16.8 80.9,16.6 
	81.1,16.5 81.2,16.4 81.4,16.3 81.7,16.2 81.9,16.2 82.2,16.2 82.4,16.2 82.5,16.2 82.7,16.2 82.8,16.3 82.9,16.3 83.1,16.4 
	83.2,16.5 83.3,16.6 83.4,16.7 83.5,16.8 83.6,17 83.6,17.2 83.7,17.4 83.7,17.6 83.6,17.9 83.6,18.2 83.6,18.4 81,18.4 81.1,17.7 
	82.7,17.7 82.7,17.6 82.7,17.5 82.7,17.5 82.7,17.4 82.7,17.3 82.6,17.3 82.6,17.2 82.6,17.2 82.5,17.1 82.5,17.1 82.4,17.1 
	82.4,17 82.3,17 82.3,17 82.2,17 82.1,17 82.1,17 82,17 81.9,17 81.9,17 81.8,17 81.8,17.1 81.7,17.1 81.7,17.2 81.6,17.2 
	81.6,17.3 81.5,17.3 81.5,17.4 81.5,17.4 81.4,17.5 81.4,17.6 81.4,17.7 81.3,18.4 81.3,18.4 "/>
<polyline class="st5" points="81.3,18.4 81.3,18.4 81.3,18.5 81.3,18.5 81.3,18.6 81.3,18.7 81.3,18.7 81.3,18.8 81.4,18.9 
	81.4,18.9 81.5,19 81.5,19 81.6,19.1 81.6,19.1 81.7,19.2 81.8,19.2 81.8,19.2 81.9,19.2 81.9,19.2 82,19.3 82.1,19.3 82.2,19.3 
	82.3,19.3 82.4,19.3 82.5,19.3 82.6,19.3 82.7,19.3 82.8,19.3 82.9,19.2 82.9,19.2 83,19.2 83.1,19.2 83.2,19.1 83.3,19.1 83.5,19 
	83.3,19.9 83.3,19.9 83.3,19.9 83.2,19.9 83.1,19.9 83.1,20 83,20 83,20 82.9,20 82.9,20 82.8,20 82.7,20 82.6,20.1 82.6,20.1 
	82.5,20.1 82.4,20.1 82.3,20.1 82.1,20.1 82.1,20.1 82,20.1 81.8,20 81.6,20 81.4,20 81.3,19.9 81.1,19.9 80.9,19.8 80.8,19.7 
	80.7,19.5 80.5,19.4 80.4,19.2 80.3,19 80.3,18.8 80.2,18.6 80.2,18.3 80.3,18 80.3,18 80.3,17.9 80.3,17.8 80.3,17.7 80.4,17.5 
	80.4,17.4 80.5,17.2 80.6,17 80.7,16.9 80.8,16.8 80.9,16.6 81.1,16.5 81.2,16.4 81.4,16.3 81.7,16.2 81.9,16.2 82.2,16.2 
	82.2,16.2 82.4,16.2 82.5,16.2 82.7,16.2 82.8,16.3 82.9,16.3 83.1,16.4 83.2,16.5 83.3,16.6 83.4,16.7 83.5,16.8 83.6,17 
	83.6,17.2 83.7,17.4 83.7,17.6 83.6,17.9 83.6,18.2 83.6,18.4 81,18.4 81.1,17.7 82.7,17.7 82.7,17.7 82.7,17.6 82.7,17.5 
	82.7,17.5 82.7,17.4 82.7,17.3 82.6,17.3 82.6,17.2 82.6,17.2 82.5,17.1 82.5,17.1 82.4,17.1 82.4,17 82.3,17 82.3,17 82.2,17 
	82.1,17 82.1,17 82.1,17 82,17 81.9,17 81.9,17 81.8,17 81.8,17.1 81.7,17.1 81.7,17.2 81.6,17.2 81.6,17.3 81.5,17.3 81.5,17.4 
	81.5,17.4 81.4,17.5 81.4,17.6 81.4,17.7 81.3,18.4 "/>
<polygon class="st4" points="89.7,16.5 89.7,16.4 89.7,16.4 89.6,16.4 89.6,16.4 89.5,16.4 89.4,16.3 89.4,16.3 89.3,16.3 
	89.2,16.3 89.2,16.3 89.1,16.2 89,16.2 88.9,16.2 88.9,16.2 88.8,16.2 88.7,16.2 88.6,16.2 88.5,16.2 88.4,16.2 88.3,16.3 
	88.2,16.3 88.1,16.3 88,16.4 87.9,16.4 87.8,16.5 87.7,16.6 87.6,16.7 87.6,16.9 87.5,17 87.4,17.2 87.3,17.4 87.3,17.6 87.3,17.7 
	87.2,17.9 87.2,18 87.2,18.1 87.3,18.2 87.3,18.3 87.3,18.5 87.3,18.6 87.4,18.7 87.5,18.7 87.5,18.8 87.6,18.9 87.7,19 87.8,19 
	88,19.1 88.1,19.1 88.1,19.1 88.2,19.1 88.2,19.1 88.3,19.1 88.4,19.1 88.5,19.1 88.6,19.1 88.7,19.1 88.8,19.1 88.8,19.1 
	88.9,19.1 89,19.1 89.1,19 89.2,19 89.3,18.9 89.3,18.8 89.2,19.8 89.2,19.8 89.1,19.8 89.1,19.9 89.1,19.9 89,19.9 89,19.9 
	88.9,20 88.9,20 88.8,20 88.7,20 88.6,20 88.5,20.1 88.3,20.1 88.2,20.1 88,20.1 87.8,20 87.6,20 87.5,20 87.3,19.9 87.1,19.9 
	87,19.8 86.8,19.7 86.7,19.6 86.5,19.4 86.4,19.3 86.3,19.1 86.2,18.9 86.2,18.7 86.1,18.4 86.1,18.2 86.1,17.9 86.2,17.6 
	86.2,17.4 86.2,17.3 86.3,17.2 86.3,17 86.3,16.9 86.4,16.8 86.4,16.7 86.5,16.6 86.5,16.4 86.6,16.3 86.7,16.2 86.7,16.2 
	86.8,16.1 86.8,16 86.9,15.9 87,15.8 87.1,15.8 87.2,15.7 87.2,15.6 87.3,15.6 87.4,15.5 87.5,15.5 87.6,15.4 87.7,15.4 87.8,15.4 
	87.9,15.3 88.1,15.3 88.2,15.3 88.3,15.3 88.4,15.2 88.6,15.2 88.7,15.2 88.8,15.2 88.9,15.2 89,15.3 89.1,15.3 89.2,15.3 
	89.3,15.3 89.4,15.3 89.5,15.3 89.6,15.4 89.7,15.4 89.7,15.4 89.8,15.4 89.8,15.5 89.9,15.5 89.9,15.5 89.9,15.5 89.7,16.5 
	89.7,16.5 "/>
<polyline class="st5" points="89.7,16.5 89.7,16.5 89.7,16.4 89.7,16.4 89.6,16.4 89.6,16.4 89.5,16.4 89.4,16.3 89.4,16.3 
	89.3,16.3 89.2,16.3 89.2,16.3 89.1,16.2 89,16.2 88.9,16.2 88.9,16.2 88.8,16.2 88.7,16.2 88.7,16.2 88.6,16.2 88.5,16.2 
	88.4,16.2 88.3,16.3 88.2,16.3 88.1,16.3 88,16.4 87.9,16.4 87.8,16.5 87.7,16.6 87.6,16.7 87.6,16.9 87.5,17 87.4,17.2 87.3,17.4 
	87.3,17.6 87.3,17.6 87.3,17.7 87.2,17.9 87.2,18 87.2,18.1 87.3,18.2 87.3,18.3 87.3,18.5 87.3,18.6 87.4,18.7 87.5,18.7 
	87.5,18.8 87.6,18.9 87.7,19 87.8,19 88,19.1 88.1,19.1 88.1,19.1 88.1,19.1 88.2,19.1 88.2,19.1 88.3,19.1 88.4,19.1 88.5,19.1 
	88.6,19.1 88.7,19.1 88.8,19.1 88.8,19.1 88.9,19.1 89,19.1 89.1,19 89.2,19 89.3,18.9 89.3,18.8 89.2,19.8 89.2,19.8 89.2,19.8 
	89.1,19.8 89.1,19.9 89.1,19.9 89,19.9 89,19.9 88.9,20 88.9,20 88.8,20 88.7,20 88.6,20 88.5,20.1 88.3,20.1 88.2,20.1 88,20.1 
	87.8,20 87.8,20 87.6,20 87.5,20 87.3,19.9 87.1,19.9 87,19.8 86.8,19.7 86.7,19.6 86.5,19.4 86.4,19.3 86.3,19.1 86.2,18.9 
	86.2,18.7 86.1,18.4 86.1,18.2 86.1,17.9 86.2,17.6 86.2,17.6 86.2,17.4 86.2,17.3 86.3,17.2 86.3,17 86.3,16.9 86.4,16.8 
	86.4,16.7 86.5,16.6 86.5,16.4 86.6,16.3 86.7,16.2 86.7,16.2 86.8,16.1 86.8,16 86.9,15.9 87,15.8 87.1,15.8 87.2,15.7 87.2,15.6 
	87.3,15.6 87.4,15.5 87.5,15.5 87.6,15.4 87.7,15.4 87.8,15.4 87.9,15.3 88.1,15.3 88.2,15.3 88.3,15.3 88.4,15.2 88.6,15.2 
	88.7,15.2 88.7,15.2 88.8,15.2 88.9,15.2 89,15.3 89.1,15.3 89.2,15.3 89.3,15.3 89.4,15.3 89.5,15.3 89.6,15.4 89.7,15.4 
	89.7,15.4 89.8,15.4 89.8,15.5 89.9,15.5 89.9,15.5 89.9,15.5 89.7,16.5 "/>
<polygon class="st4" points="98.5,20.1 97.5,20.1 97.6,19.7 97.6,19.6 97.5,19.7 97.5,19.8 97.4,19.8 97.3,19.9 97.3,19.9 97.2,20 
	97.2,20 97.1,20 97,20.1 97,20.1 96.9,20.1 96.8,20.1 96.7,20.1 96.7,20.1 96.6,20.1 96.5,20.1 96.3,20.1 96.2,20.1 96,20 
	95.9,19.9 95.7,19.8 95.6,19.7 95.5,19.6 95.5,19.4 95.4,19.3 95.3,19.1 95.3,18.9 95.3,18.7 95.2,18.6 95.2,18.4 95.3,18.2 
	95.3,18 95.4,17.8 95.4,17.6 95.5,17.4 95.6,17.2 95.7,17.1 95.8,16.9 95.9,16.8 96,16.7 96.1,16.6 96.3,16.5 96.4,16.4 96.5,16.4 
	96.7,16.3 96.8,16.3 97,16.3 97.1,16.3 97.2,16.3 97.3,16.3 97.4,16.3 97.5,16.3 97.6,16.3 97.6,16.4 97.7,16.4 97.8,16.5 
	97.8,16.5 97.9,16.5 97.9,16.6 98,16.6 98,16.7 98,16.7 98.1,16.8 98.1,16.8 98.1,16.8 98.3,15.4 99.3,15.4 98.5,20.1 98.5,20.1 "/>
<polyline class="st5" points="98.5,20.1 97.5,20.1 97.6,19.7 97.6,19.6 97.6,19.6 97.5,19.7 97.5,19.8 97.4,19.8 97.3,19.9 
	97.3,19.9 97.2,20 97.2,20 97.1,20 97,20.1 97,20.1 96.9,20.1 96.8,20.1 96.7,20.1 96.7,20.1 96.6,20.1 96.5,20.1 96.5,20.1 
	96.3,20.1 96.2,20.1 96,20 95.9,19.9 95.7,19.8 95.6,19.7 95.5,19.6 95.5,19.4 95.4,19.3 95.3,19.1 95.3,18.9 95.3,18.7 95.2,18.6 
	95.2,18.4 95.3,18.2 95.3,18 95.3,18 95.4,17.8 95.4,17.6 95.5,17.4 95.6,17.2 95.7,17.1 95.8,16.9 95.9,16.8 96,16.7 96.1,16.6 
	96.3,16.5 96.4,16.4 96.5,16.4 96.7,16.3 96.8,16.3 97,16.3 97.1,16.3 97.1,16.3 97.2,16.3 97.3,16.3 97.4,16.3 97.5,16.3 
	97.6,16.3 97.6,16.4 97.7,16.4 97.8,16.5 97.8,16.5 97.9,16.5 97.9,16.6 98,16.6 98,16.7 98,16.7 98.1,16.8 98.1,16.8 98.1,16.8 
	98.3,15.4 99.3,15.4 98.5,20.1 "/>
<polygon class="st2" points="96.9,19.2 97,19.2 97.1,19.2 97.2,19.2 97.2,19.1 97.3,19.1 97.4,19 97.5,19 97.5,18.9 97.6,18.8 
	97.6,18.7 97.7,18.7 97.7,18.6 97.7,18.5 97.8,18.4 97.8,18.3 97.8,18.2 97.8,18.1 97.8,18 97.8,17.9 97.8,17.8 97.8,17.7 
	97.8,17.6 97.8,17.5 97.8,17.5 97.7,17.4 97.7,17.3 97.6,17.3 97.6,17.2 97.5,17.2 97.5,17.1 97.4,17.1 97.3,17.1 97.2,17.1 
	97.1,17.1 97.1,17.2 97,17.2 96.9,17.2 96.8,17.3 96.8,17.4 96.7,17.4 96.7,17.5 96.6,17.6 96.6,17.7 96.5,17.8 96.5,17.9 96.5,18 
	96.4,18.1 96.4,18.2 96.4,18.3 96.4,18.5 96.4,18.7 96.5,18.8 96.5,19 96.6,19.1 96.7,19.2 96.9,19.2 96.9,19.2 "/>
<polygon class="st4" points="75.1,19.3 74.9,20.1 74,20.1 74,19.9 74.1,19.8 74.1,19.7 74.1,19.6 74,19.7 74,19.7 73.9,19.8 
	73.8,19.9 73.8,19.9 73.7,19.9 73.6,20 73.5,20 73.4,20.1 73.3,20.1 73.2,20.1 73.1,20.1 73,20.1 72.9,20.1 72.8,20.1 72.7,20.1 
	72.5,20.1 72.4,20 72.3,20 72.2,19.9 72.2,19.9 72.1,19.8 72,19.7 72,19.7 71.9,19.6 71.9,19.5 71.9,19.4 71.9,19.4 71.8,19.3 
	71.8,19.2 71.8,19.1 71.8,19 71.8,18.9 71.9,18.8 71.9,18.6 71.9,18.5 72,18.4 72.1,18.3 72.1,18.2 72.2,18.1 72.3,18 72.4,18 
	72.5,17.9 72.6,17.8 72.7,17.8 72.8,17.8 73,17.7 73.1,17.7 73.1,17.7 73.1,17.7 73.1,17.7 73.2,17.7 73.2,17.7 73.3,17.7 
	73.3,17.7 73.4,17.7 73.4,17.7 73.5,17.7 73.6,17.6 73.6,17.6 73.7,17.6 73.7,17.6 73.8,17.6 73.8,17.6 73.9,17.6 74,17.6 
	74.1,17.6 74.2,17.6 74.2,17.6 74.3,17.6 74.3,17.6 74.3,17.6 74.3,17.6 74.3,17.6 74.4,17.5 74.4,17.4 74.4,17.3 74.3,17.3 
	74.3,17.2 74.2,17.1 74.2,17.1 74.1,17.1 74,17 73.9,17 73.8,17 73.7,17 73.6,17 73.5,17 73.4,17 73.2,17.1 73.1,17.1 73,17.1 
	72.9,17.1 72.8,17.1 72.7,17.1 72.6,17.1 72.5,17.2 72.5,17.2 72.4,17.2 72.4,17.2 72.6,16.4 72.7,16.3 72.8,16.3 72.9,16.3 
	73,16.3 73.1,16.3 73.2,16.2 73.2,16.2 73.3,16.2 73.4,16.2 73.5,16.2 73.7,16.2 73.8,16.2 73.9,16.2 74,16.2 74.1,16.2 74.2,16.2 
	74.3,16.2 74.4,16.2 74.6,16.3 74.7,16.3 74.8,16.3 74.9,16.4 75,16.5 75.1,16.5 75.2,16.6 75.3,16.7 75.3,16.8 75.4,16.9 75.4,17 
	75.4,17.1 75.4,17.3 75.4,17.4 75.1,19.3 75.1,19.3 "/>
<polyline class="st5" points="75.1,19.3 74.9,20.1 74,20.1 74,20.1 74,19.9 74.1,19.8 74.1,19.7 74.1,19.6 74.1,19.6 74,19.7 
	74,19.7 73.9,19.8 73.8,19.9 73.8,19.9 73.7,19.9 73.6,20 73.5,20 73.4,20.1 73.3,20.1 73.2,20.1 73.1,20.1 73,20.1 72.9,20.1 
	72.8,20.1 72.7,20.1 72.7,20.1 72.5,20.1 72.4,20 72.3,20 72.2,19.9 72.2,19.9 72.1,19.8 72,19.7 72,19.7 71.9,19.6 71.9,19.5 
	71.9,19.4 71.9,19.4 71.8,19.3 71.8,19.2 71.8,19.1 71.8,19 71.8,19 71.8,18.9 71.9,18.8 71.9,18.6 71.9,18.5 72,18.4 72.1,18.3 
	72.1,18.2 72.2,18.1 72.3,18 72.4,18 72.5,17.9 72.6,17.8 72.7,17.8 72.8,17.8 73,17.7 73.1,17.7 73.1,17.7 73.1,17.7 73.1,17.7 
	73.1,17.7 73.2,17.7 73.2,17.7 73.3,17.7 73.3,17.7 73.4,17.7 73.4,17.7 73.5,17.7 73.6,17.6 73.6,17.6 73.7,17.6 73.7,17.6 
	73.8,17.6 73.8,17.6 73.8,17.6 73.9,17.6 74,17.6 74.1,17.6 74.2,17.6 74.2,17.6 74.3,17.6 74.3,17.6 74.3,17.6 74.3,17.6 
	74.3,17.6 74.3,17.6 74.4,17.5 74.4,17.4 74.4,17.4 74.4,17.3 74.3,17.3 74.3,17.2 74.2,17.1 74.2,17.1 74.1,17.1 74,17 73.9,17 
	73.9,17 73.8,17 73.7,17 73.6,17 73.5,17 73.4,17 73.2,17.1 73.1,17.1 73,17.1 72.9,17.1 72.8,17.1 72.7,17.1 72.6,17.1 72.5,17.2 
	72.5,17.2 72.4,17.2 72.4,17.2 72.6,16.4 72.6,16.4 72.7,16.3 72.8,16.3 72.9,16.3 73,16.3 73.1,16.3 73.2,16.2 73.2,16.2 
	73.3,16.2 73.4,16.2 73.5,16.2 73.7,16.2 73.8,16.2 73.9,16.2 74,16.2 74.1,16.2 74.2,16.2 74.2,16.2 74.3,16.2 74.4,16.2 
	74.6,16.3 74.7,16.3 74.8,16.3 74.9,16.4 75,16.5 75.1,16.5 75.2,16.6 75.3,16.7 75.3,16.8 75.4,16.9 75.4,17 75.4,17.1 75.4,17.3 
	75.4,17.4 75.1,19.3 "/>
<polygon class="st3" points="74.2,18.3 74.2,18.3 74.2,18.3 74.2,18.3 74.1,18.3 74.1,18.3 74,18.3 74,18.3 73.9,18.3 73.9,18.3 
	73.8,18.3 73.8,18.3 73.7,18.3 73.7,18.3 73.6,18.3 73.6,18.3 73.5,18.3 73.5,18.4 73.5,18.4 73.4,18.4 73.4,18.4 73.3,18.4 
	73.3,18.4 73.2,18.5 73.2,18.5 73.2,18.5 73.1,18.6 73.1,18.6 73,18.7 73,18.7 73,18.7 72.9,18.8 72.9,18.9 72.9,19 72.9,19.1 
	73,19.2 73,19.2 73.1,19.2 73.1,19.3 73.2,19.3 73.3,19.3 73.4,19.3 73.5,19.3 73.6,19.2 73.6,19.2 73.7,19.2 73.8,19.2 73.8,19.1 
	73.9,19.1 73.9,19.1 74,19 74,19 74,18.9 74.1,18.9 74.1,18.9 74.1,18.8 74.1,18.8 74.1,18.7 74.2,18.6 74.2,18.4 74.2,18.3 
	74.2,18.3 "/>
<polygon class="st4" points="67.6,20.1 66.6,20.1 67.4,15.4 69.1,15.4 69.3,18.2 70.4,15.4 72.2,15.4 71.4,20.1 70.4,20.1 71,16.6 
	71,16.6 69.5,20.1 68.4,20.1 68.4,19.9 68.4,19.5 68.4,19 68.3,18.3 68.3,17.7 68.3,17.2 68.2,16.7 68.2,16.6 68.2,16.6 68.2,16.6 
	68.2,16.6 68.2,16.6 67.6,20.1 67.6,20.1 "/>
<polyline class="st5" points="67.6,20.1 66.6,20.1 67.4,15.4 69.1,15.4 69.3,18.2 70.4,15.4 72.2,15.4 71.4,20.1 70.4,20.1 71,16.6 
	71,16.6 69.5,20.1 68.4,20.1 68.4,20.1 68.4,19.9 68.4,19.5 68.4,19 68.3,18.3 68.3,17.7 68.3,17.2 68.2,16.7 68.2,16.6 68.2,16.6 
	68.2,16.6 68.2,16.6 68.2,16.6 68.2,16.6 67.6,20.1 "/>
<polygon class="st4" points="92.7,19.3 92.6,20.1 91.7,20.1 91.7,19.9 91.7,19.8 91.7,19.7 91.7,19.7 91.6,19.7 91.6,19.8 
	91.5,19.8 91.4,19.9 91.4,19.9 91.3,19.9 91.2,20 91.1,20 91,20.1 90.9,20.1 90.8,20.1 90.7,20.1 90.6,20.1 90.5,20.1 90.4,20.1 
	90.3,20.1 90.2,20.1 90.1,20 90,20 89.9,19.9 89.8,19.9 89.7,19.8 89.7,19.7 89.6,19.7 89.6,19.6 89.6,19.5 89.5,19.4 89.5,19.4 
	89.5,19.3 89.5,19.2 89.5,19.1 89.5,19 89.5,18.9 89.5,18.8 89.5,18.6 89.6,18.5 89.6,18.4 89.7,18.3 89.8,18.2 89.9,18.1 90,18 
	90.1,18 90.2,17.9 90.3,17.8 90.4,17.8 90.5,17.8 90.6,17.7 90.7,17.7 90.7,17.7 90.8,17.7 90.8,17.7 90.8,17.7 90.9,17.7 
	90.9,17.7 91,17.7 91,17.7 91.1,17.7 91.2,17.7 91.2,17.6 91.3,17.6 91.3,17.6 91.4,17.6 91.4,17.6 91.5,17.6 91.6,17.6 91.6,17.6 
	91.7,17.6 91.8,17.6 91.9,17.6 91.9,17.6 92,17.6 92,17.6 92,17.6 92,17.6 92,17.5 92,17.4 92,17.3 92,17.3 91.9,17.2 91.9,17.1 
	91.8,17.1 91.7,17.1 91.6,17 91.6,17 91.5,17 91.4,17 91.2,17 91.1,17 91,17 90.9,17.1 90.8,17.1 90.7,17.1 90.6,17.1 90.5,17.1 
	90.4,17.1 90.3,17.1 90.2,17.2 90.1,17.2 90.1,17.2 90.1,17.2 90.3,16.4 90.4,16.3 90.5,16.3 90.5,16.3 90.6,16.3 90.7,16.3 
	90.8,16.2 90.9,16.2 91,16.2 91.1,16.2 91.2,16.2 91.3,16.2 91.4,16.2 91.5,16.2 91.6,16.2 91.8,16.2 91.9,16.2 92,16.2 92.1,16.2 
	92.2,16.3 92.3,16.3 92.4,16.3 92.5,16.4 92.6,16.5 92.7,16.5 92.8,16.6 92.9,16.7 93,16.8 93,16.9 93.1,17 93.1,17.1 93.1,17.3 
	93.1,17.4 92.7,19.3 92.7,19.3 "/>
<polygon class="st4" points="92.6,20.1 92.6,20.1 92.7,19.3 92.7,19.3 92.5,20.1 92.6,20 92.6,20.1 92.6,20.1 92.6,20.1 92.6,20.1 
	92.6,20.1 "/>
<polygon class="st4" points="91.6,20.1 91.7,20.1 92.6,20.1 92.6,20 91.7,20 91.7,20.1 91.6,20.1 91.6,20.1 91.7,20.1 91.6,20.1 
	91.6,20.1 "/>
<polygon class="st4" points="91.7,19.7 91.7,19.6 91.7,19.7 91.7,19.8 91.7,19.9 91.6,20.1 91.7,20.1 91.7,19.9 91.7,19.8 
	91.7,19.7 91.7,19.7 91.7,19.6 91.7,19.7 91.7,19.7 "/>
<polygon class="st4" points="90.3,20.1 90.3,20.1 90.4,20.1 90.5,20.1 90.6,20.1 90.7,20.1 90.8,20.1 90.9,20.1 91,20.1 91.1,20 
	91.2,20 91.3,20 91.4,19.9 91.5,19.9 91.5,19.8 91.6,19.8 91.7,19.7 91.7,19.7 91.7,19.6 91.6,19.7 91.6,19.7 91.5,19.8 91.4,19.8 
	91.4,19.9 91.3,19.9 91.2,20 91.1,20 91,20 90.9,20.1 90.8,20.1 90.7,20.1 90.6,20.1 90.5,20.1 90.4,20.1 90.3,20.1 90.3,20.1 
	90.3,20.1 90.3,20.1 "/>
<polygon class="st4" points="89.5,19 89.5,19 89.5,19.1 89.5,19.2 89.5,19.3 89.5,19.4 89.5,19.4 89.5,19.5 89.6,19.6 89.6,19.7 
	89.7,19.8 89.7,19.8 89.8,19.9 89.9,20 90,20 90.1,20.1 90.2,20.1 90.3,20.1 90.3,20.1 90.2,20 90.1,20 90,20 89.9,19.9 89.8,19.9 
	89.8,19.8 89.7,19.7 89.7,19.7 89.6,19.6 89.6,19.5 89.6,19.4 89.5,19.4 89.5,19.3 89.5,19.2 89.5,19.1 89.5,19 89.5,19 89.5,19 
	89.5,19 "/>
<polygon class="st4" points="90.7,17.7 90.7,17.7 90.6,17.7 90.5,17.7 90.4,17.8 90.3,17.8 90.1,17.9 90,17.9 89.9,18 89.9,18.1 
	89.8,18.2 89.7,18.3 89.6,18.4 89.6,18.5 89.5,18.6 89.5,18.8 89.5,18.9 89.5,19 89.5,19 89.5,18.9 89.5,18.8 89.6,18.7 89.6,18.5 
	89.7,18.4 89.7,18.3 89.8,18.2 89.9,18.1 90,18.1 90.1,18 90.2,17.9 90.3,17.9 90.4,17.8 90.5,17.8 90.6,17.7 90.7,17.7 90.7,17.7 
	90.7,17.7 90.7,17.7 "/>
<polygon class="st4" points="91.5,17.6 91.5,17.6 91.4,17.6 91.4,17.6 91.3,17.6 91.3,17.6 91.2,17.6 91.2,17.6 91.1,17.6 91,17.6 
	91,17.7 90.9,17.7 90.9,17.7 90.8,17.7 90.8,17.7 90.8,17.7 90.7,17.7 90.7,17.7 90.7,17.7 90.7,17.7 90.8,17.7 90.8,17.7 
	90.8,17.7 90.9,17.7 90.9,17.7 91,17.7 91,17.7 91.1,17.7 91.2,17.7 91.2,17.7 91.3,17.7 91.3,17.7 91.4,17.7 91.4,17.7 91.5,17.7 
	91.5,17.7 91.5,17.6 91.5,17.6 "/>
<polygon class="st4" points="91.9,17.6 92,17.6 92,17.6 91.9,17.6 91.9,17.6 91.8,17.6 91.7,17.6 91.6,17.6 91.6,17.6 91.5,17.6 
	91.5,17.7 91.6,17.7 91.6,17.7 91.7,17.7 91.8,17.7 91.9,17.7 91.9,17.7 92,17.7 92,17.7 92,17.7 92,17.7 92,17.7 92,17.7 
	91.9,17.6 91.9,17.6 "/>
<polygon class="st4" points="92,17.4 92,17.4 92,17.5 92,17.6 92,17.6 91.9,17.6 92,17.7 92,17.6 92,17.6 92,17.5 92,17.4 92,17.4 
	92,17.4 92,17.4 "/>
<polygon class="st4" points="91.6,17.1 91.6,17.1 91.6,17.1 91.7,17.1 91.8,17.1 91.8,17.2 91.9,17.2 91.9,17.3 92,17.3 92,17.4 
	92,17.4 92,17.3 92,17.3 91.9,17.2 91.9,17.1 91.8,17.1 91.7,17 91.6,17 91.6,17 91.6,17 91.6,17.1 91.6,17.1 "/>
<polygon class="st4" points="90,17.2 90.1,17.3 90.1,17.2 90.2,17.2 90.2,17.2 90.3,17.2 90.4,17.2 90.5,17.1 90.6,17.1 90.7,17.1 
	90.8,17.1 90.9,17.1 91,17.1 91.1,17.1 91.2,17.1 91.4,17.1 91.5,17.1 91.6,17.1 91.6,17 91.5,17 91.4,17 91.2,17 91.1,17 91,17 
	90.9,17 90.8,17 90.7,17.1 90.6,17.1 90.5,17.1 90.4,17.1 90.3,17.1 90.2,17.1 90.1,17.2 90.1,17.2 90,17.2 90.1,17.2 90,17.2 
	90,17.2 "/>
<polygon class="st4" points="90.3,16.4 90.3,16.4 90,17.2 90.1,17.2 90.3,16.4 90.3,16.4 90.3,16.4 90.3,16.4 90.3,16.4 90.3,16.4 
	90.3,16.4 "/>
<polygon class="st4" points="91.9,16.2 91.9,16.2 91.8,16.2 91.6,16.2 91.5,16.2 91.4,16.2 91.3,16.2 91.2,16.2 91.1,16.2 91,16.2 
	90.9,16.2 90.8,16.2 90.7,16.2 90.6,16.3 90.5,16.3 90.5,16.3 90.4,16.3 90.3,16.4 90.3,16.4 90.4,16.4 90.5,16.3 90.5,16.3 
	90.6,16.3 90.7,16.3 90.8,16.3 90.9,16.3 91,16.2 91.1,16.2 91.2,16.2 91.3,16.2 91.4,16.2 91.5,16.2 91.6,16.2 91.8,16.2 
	91.9,16.2 91.9,16.2 91.9,16.2 91.9,16.2 "/>
<polygon class="st4" points="93.1,17.4 93.1,17.4 93.1,17.3 93.1,17.1 93.1,17 93.1,16.9 93,16.8 92.9,16.7 92.8,16.6 92.7,16.5 
	92.6,16.4 92.5,16.4 92.4,16.3 92.3,16.3 92.2,16.2 92.1,16.2 92,16.2 91.9,16.2 91.9,16.2 92,16.2 92.1,16.3 92.2,16.3 92.3,16.3 
	92.4,16.4 92.5,16.4 92.6,16.5 92.7,16.5 92.8,16.6 92.9,16.7 93,16.8 93,16.9 93,17 93.1,17.1 93.1,17.3 93.1,17.4 93.1,17.4 
	93.1,17.4 93.1,17.4 "/>
<polygon class="st4" points="92.7,19.3 92.7,19.3 93.1,17.4 93.1,17.4 92.7,19.3 92.7,19.3 92.7,19.3 92.7,19.3 "/>
<polygon class="st2" points="91.8,18.3 91.8,18.3 91.8,18.3 91.8,18.3 91.8,18.3 91.7,18.3 91.7,18.3 91.6,18.3 91.6,18.3 
	91.5,18.3 91.5,18.3 91.4,18.3 91.3,18.3 91.3,18.3 91.2,18.3 91.2,18.3 91.2,18.3 91.1,18.4 91.1,18.4 91.1,18.4 91,18.4 91,18.4 
	90.9,18.4 90.9,18.5 90.9,18.5 90.8,18.5 90.8,18.6 90.7,18.6 90.7,18.6 90.6,18.7 90.6,18.7 90.6,18.8 90.6,18.9 90.6,19 
	90.6,19.1 90.6,19.2 90.7,19.2 90.7,19.2 90.8,19.3 90.9,19.3 90.9,19.3 91,19.3 91.1,19.3 91.2,19.2 91.3,19.2 91.4,19.2 
	91.4,19.2 91.5,19.1 91.6,19.1 91.6,19 91.7,19 91.7,19 91.7,18.9 91.7,18.9 91.8,18.8 91.8,18.8 91.8,18.7 91.8,18.6 91.8,18.5 
	91.8,18.4 91.8,18.3 91.8,18.3 "/>
<polygon class="st4" points="99.2,19.6 99.2,19.5 99.2,19.4 99.3,19.3 99.3,19.2 99.4,19.2 99.5,19.1 99.6,19.1 99.7,19.1 
	99.8,19.1 99.9,19.1 99.9,19.2 100,19.2 100.1,19.3 100.1,19.4 100.2,19.5 100.2,19.6 100.1,19.6 100.1,19.5 100,19.4 100,19.4 
	99.9,19.3 99.9,19.3 99.8,19.2 99.7,19.2 99.7,19.2 99.6,19.2 99.5,19.2 99.4,19.3 99.4,19.3 99.3,19.4 99.3,19.4 99.3,19.5 
	99.3,19.6 99.2,19.6 99.2,19.6 "/>
<polygon class="st4" points="99.5,19.6 99.5,19.4 99.7,19.4 99.7,19.4 99.8,19.4 99.8,19.4 99.8,19.4 99.8,19.4 99.8,19.4 
	99.9,19.5 99.9,19.5 99.9,19.5 99.8,19.5 99.8,19.6 99.8,19.6 99.7,19.6 99.7,19.6 99.7,19.6 99.7,19.6 99.8,19.6 99.8,19.5 
	99.8,19.5 99.8,19.5 99.8,19.5 99.8,19.5 99.8,19.5 99.8,19.5 99.8,19.4 99.7,19.4 99.7,19.4 99.7,19.4 99.7,19.4 99.6,19.4 
	99.6,19.6 99.5,19.6 99.5,19.6 "/>
<polygon class="st4" points="99.2,19.6 99.2,19.6 99.2,19.7 99.2,19.8 99.3,19.9 99.3,20 99.4,20 99.5,20.1 99.6,20.1 99.7,20.1 
	99.8,20.1 99.9,20.1 99.9,20 100,20 100.1,19.9 100.1,19.8 100.2,19.7 100.2,19.6 100.2,19.6 100.1,19.6 100.1,19.6 100.1,19.7 
	100,19.8 100,19.8 99.9,19.9 99.9,19.9 99.8,20 99.7,20 99.7,20 99.6,20 99.5,20 99.4,19.9 99.4,19.9 99.3,19.8 99.3,19.8 
	99.3,19.7 99.3,19.6 99.3,19.6 99.2,19.6 99.2,19.6 "/>
<polygon class="st4" points="99.5,19.6 99.5,19.8 99.6,19.8 99.6,19.6 99.7,19.6 99.8,19.8 99.8,19.8 99.7,19.6 99.8,19.6 
	99.8,19.6 99.8,19.6 99.8,19.6 99.8,19.6 99.7,19.6 99.7,19.6 99.6,19.6 99.6,19.6 99.5,19.6 99.5,19.6 "/>
<path class="st5" d="M99.2,19.6L99.2,19.6l0-0.1l0-0.1l0-0.1l0.1-0.1l0.1-0.1l0.1,0l0.1,0l0.1,0l0,0l0.1,0l0.1,0l0.1,0l0.1,0.1
	l0.1,0.1l0,0.1l0,0.1l0,0.1l0,0l0,0.1l0,0.1l0,0.1L100,20L99.9,20l-0.1,0l-0.1,0l-0.1,0l0,0l-0.1,0l-0.1,0l-0.1,0L99.3,20l-0.1-0.1
	l0-0.1l0-0.1L99.2,19.6 M99.6,19.8L99.6,19.8l-0.1-0.4h0.2l0,0l0,0l0,0l0,0l0,0l0,0l0,0l0,0l0,0l0,0l0,0l0,0l0,0l0,0l0,0l0,0l0,0h0
	l0.1,0.2h-0.1l-0.1-0.2h-0.1V19.8 M99.7,19.6L99.7,19.6L99.7,19.6L99.7,19.6L99.7,19.6L99.7,19.6l0.1,0l0,0l0,0v0l0,0l0,0l0,0l0,0
	l0,0l0,0l0,0h0h0h-0.1L99.7,19.6L99.7,19.6 M99.7,20L99.7,20L99.7,20l0.2,0l0.1,0l0.1,0l0-0.1l0-0.1l0-0.1l0-0.1l0,0l0-0.1l0-0.1
	l0-0.1l0-0.1l-0.1,0l-0.1,0l-0.1,0l-0.1,0l0,0l-0.1,0l-0.1,0l-0.1,0l-0.1,0l0,0.1l0,0.1l0,0.1l0,0.1l0,0l0,0.1l0,0.1l0,0.1l0,0.1
	l0.1,0l0.1,0L99.7,20L99.7,20"/>
<polygon class="st4" points="93,20.1 94,20.1 94,20.1 94.3,18 94.3,18 94.4,17.9 94.4,17.8 94.4,17.7 94.5,17.7 94.5,17.6 
	94.5,17.5 94.6,17.4 94.7,17.4 94.7,17.3 94.8,17.3 94.9,17.2 95,17.2 95.1,17.2 95.2,17.1 95.4,17.1 95.4,17.1 95.5,17.1 
	95.5,17.1 95.5,17.1 95.6,16.2 95.5,16.2 95.4,16.2 95.4,16.3 95.3,16.3 95.2,16.3 95.1,16.3 95,16.4 95,16.4 94.9,16.5 94.9,16.5 
	94.8,16.6 94.7,16.6 94.7,16.7 94.6,16.8 94.6,16.8 94.5,16.9 94.6,16.3 93.6,16.3 93,20.1 93,20.1 93,20.1 "/>
<polyline class="st5" points="93,20.1 94,20.1 94,20.1 94.3,18 94.3,18 94.3,18 94.4,17.9 94.4,17.8 94.4,17.7 94.5,17.7 94.5,17.6 
	94.5,17.5 94.6,17.4 94.7,17.4 94.7,17.3 94.8,17.3 94.9,17.2 95,17.2 95.1,17.2 95.2,17.1 95.4,17.1 95.4,17.1 95.4,17.1 
	95.5,17.1 95.5,17.1 95.5,17.1 95.6,16.2 95.6,16.2 95.5,16.2 95.4,16.2 95.4,16.3 95.3,16.3 95.2,16.3 95.1,16.3 95,16.4 95,16.4 
	94.9,16.5 94.9,16.5 94.8,16.6 94.7,16.6 94.7,16.7 94.6,16.8 94.6,16.8 94.5,16.9 94.6,16.3 93.6,16.3 93,20.1 93,20.1 "/>
<polygon class="st4" points="83.6,20.1 84.6,20.1 84.6,20.1 84.9,18 84.9,18 85,17.9 85,17.8 85,17.7 85,17.7 85.1,17.6 85.1,17.5 
	85.1,17.5 85.2,17.4 85.3,17.4 85.3,17.3 85.4,17.3 85.5,17.3 85.6,17.2 85.8,17.2 85.9,17.2 85.9,17.2 85.9,17.2 85.9,17.2 
	86,17.2 86,17.2 86,17.2 86,17.2 86,17.2 86,17.2 86,17.2 86,17.1 86.1,17 86.1,16.9 86.1,16.8 86.1,16.7 86.2,16.6 86.2,16.6 
	86.2,16.5 86.3,16.4 86.3,16.4 86.3,16.3 86.4,16.3 86.4,16.2 86.4,16.2 86.4,16.2 86.4,16.2 86.4,16.2 86.3,16.2 86.3,16.2 
	86.3,16.2 86.2,16.2 86.2,16.2 86.1,16.2 86,16.2 85.9,16.3 85.8,16.3 85.8,16.3 85.7,16.3 85.6,16.4 85.5,16.4 85.5,16.5 
	85.4,16.5 85.4,16.6 85.3,16.6 85.3,16.7 85.2,16.8 85.2,16.8 85.1,16.9 85.2,16.3 84.2,16.3 83.6,20.1 83.6,20.1 83.6,20.1 "/>
<polyline class="st5" points="83.6,20.1 84.6,20.1 84.6,20.1 84.9,18 84.9,18 84.9,18 85,17.9 85,17.8 85,17.7 85,17.7 85.1,17.6 
	85.1,17.5 85.1,17.5 85.2,17.4 85.3,17.4 85.3,17.3 85.4,17.3 85.5,17.3 85.6,17.2 85.8,17.2 85.9,17.2 85.9,17.2 85.9,17.2 
	85.9,17.2 85.9,17.2 86,17.2 86,17.2 86,17.2 86,17.2 86,17.2 86,17.2 86,17.2 86,17.2 86,17.1 86.1,17 86.1,16.9 86.1,16.8 
	86.1,16.7 86.2,16.6 86.2,16.6 86.2,16.6 86.2,16.5 86.3,16.4 86.3,16.4 86.3,16.3 86.4,16.3 86.4,16.2 86.4,16.2 86.4,16.2 
	86.4,16.2 86.4,16.2 86.4,16.2 86.3,16.2 86.3,16.2 86.3,16.2 86.2,16.2 86.2,16.2 86.2,16.2 86.1,16.2 86,16.2 85.9,16.3 
	85.8,16.3 85.8,16.3 85.7,16.3 85.6,16.4 85.5,16.4 85.5,16.5 85.4,16.5 85.4,16.6 85.3,16.6 85.3,16.7 85.2,16.8 85.2,16.8 
	85.1,16.9 85.2,16.3 84.2,16.3 83.6,20.1 83.6,20.1 "/>
<polygon class="st2" points="99.2,23.8 99.2,23.8 99.2,23.7 99.3,23.6 99.3,23.5 99.4,23.5 99.5,23.4 99.6,23.4 99.7,23.4 
	99.8,23.4 99.9,23.4 99.9,23.5 100,23.5 100.1,23.6 100.1,23.7 100.2,23.8 100.2,23.8 100.1,23.8 100,23.7 100,23.7 99.9,23.6 
	99.9,23.6 99.8,23.5 99.7,23.5 99.7,23.5 99.6,23.5 99.5,23.5 99.4,23.6 99.4,23.6 99.3,23.7 99.3,23.7 99.3,23.8 99.2,23.8 
	99.2,23.8 "/>
<polygon class="st2" points="99.5,23.8 99.5,23.7 99.7,23.7 99.7,23.7 99.8,23.7 99.8,23.7 99.8,23.7 99.8,23.7 99.8,23.7 
	99.9,23.8 99.9,23.8 99.8,23.8 99.8,23.8 99.8,23.8 99.8,23.8 99.8,23.7 99.8,23.7 99.7,23.7 99.7,23.7 99.7,23.7 99.7,23.7 
	99.6,23.7 99.6,23.8 99.5,23.8 99.5,23.8 "/>
<polygon class="st2" points="99.2,23.9 99.2,23.8 99.3,23.8 99.3,23.8 99.3,23.9 99.2,23.9 99.2,23.9 "/>
<polygon class="st2" points="99.5,23.9 99.5,23.8 99.6,23.8 99.6,23.9 99.7,23.9 99.7,23.9 99.7,23.9 99.7,23.9 99.8,23.8 
	99.8,23.8 99.8,23.8 99.8,23.8 99.8,23.8 99.9,23.8 99.9,23.8 99.9,23.8 99.8,23.8 99.8,23.9 99.8,23.9 99.5,23.9 99.5,23.9 "/>
<polygon class="st2" points="100.1,23.9 100.1,23.8 100.1,23.8 100.2,23.8 100.2,23.9 100.1,23.9 100.1,23.9 "/>
<polygon class="st2" points="99.2,23.9 99.2,23.9 99.2,24 99.2,24.1 99.3,24.2 99.3,24.3 99.4,24.3 99.5,24.4 99.6,24.4 99.7,24.4 
	99.8,24.4 99.9,24.4 99.9,24.3 100,24.3 100.1,24.2 100.1,24.1 100.2,24 100.2,23.9 100.2,23.9 100.1,23.9 100.1,23.9 100.1,24 
	100,24.1 100,24.1 99.9,24.2 99.9,24.2 99.8,24.3 99.7,24.3 99.7,24.3 99.6,24.3 99.5,24.3 99.4,24.2 99.4,24.2 99.3,24.1 
	99.3,24.1 99.3,24 99.3,23.9 99.3,23.9 99.2,23.9 99.2,23.9 "/>
<polygon class="st2" points="99.5,23.9 99.5,24.1 99.6,24.1 99.6,23.9 99.7,23.9 99.8,24.1 99.8,24.1 99.7,23.9 99.8,23.9 
	99.8,23.9 99.8,23.9 99.8,23.9 99.8,23.9 99.5,23.9 99.5,23.9 "/>
</svg>
